<?xml version="1.0" encoding="utf-8"?>
<!-- Generator: Adobe Illustrator 26.2.1, SVG Export Plug-In . SVG Version: 6.00 Build 0)  -->
<svg version="1.1" id="Icons" xmlns="http://www.w3.org/2000/svg" xmlns:xlink="http://www.w3.org/1999/xlink" x="0px" y="0px"
	 viewBox="0 0 512 512" style="enable-background:new 0 0 512 512;" xml:space="preserve">
<style type="text/css">
	.st0{fill:#26DE81;}
</style>
<path id="Check_Mark" class="st0" d="M256,512C114.8,512,0,397.2,0,256S114.8,0,256,0s256,114.8,256,256S397.2,512,256,512z M256,32
	C132.5,32,32,132.5,32,256s100.5,224,224,224s224-100.5,224-224S379.5,32,256,32z M219.3,347.3l160-160c6.3-6.3,6.3-16.4,0-22.6
	s-16.4-6.3-22.6,0L208,313.4l-52.7-52.7c-6.3-6.3-16.4-6.3-22.6,0c-6.2,6.3-6.3,16.4,0,22.6l64,64c3.1,3.1,7.2,4.7,11.3,4.7
	S216.2,350.4,219.3,347.3L219.3,347.3z"/>
</svg>
