<?xml version="1.0" encoding="utf-8"?>
<!-- Generator: Adobe Illustrator 26.2.1, SVG Export Plug-In . SVG Version: 6.00 Build 0)  -->
<svg version="1.1" id="Layer_1" xmlns="http://www.w3.org/2000/svg" xmlns:xlink="http://www.w3.org/1999/xlink" x="0px" y="0px"
	 viewBox="0 0 2452.4 413.8" style="enable-background:new 0 0 2452.4 413.8;" xml:space="preserve">
<style type="text/css">
	.st0{display:none;}
	.st1{fill:#1434CB;}
	.st2{fill:#FF5F00;}
	.st3{fill:#EB001B;}
	.st4{fill:#F79E1B;}
	.st5{fill-rule:evenodd;clip-rule:evenodd;fill:#0F754E;}
	.st6{fill-rule:evenodd;clip-rule:evenodd;fill:url(#path24_00000124121090495349336660000005427824524712467133_);}
	.st7{fill:#5B57A2;}
	.st8{fill:#D90751;}
	.st9{fill:#FAB718;}
	.st10{fill:#ED6F26;}
	.st11{fill:#63B22F;}
	.st12{fill:#1487C9;}
	.st13{fill:#017F36;}
	.st14{fill:#984995;}
	.st15{display:none;fill:#ED6F26;}
	.st16{display:none;fill:#1487C9;}
	.st17{display:none;fill:#017F36;}
</style>
<g id="Layer_1_00000000211756212124616050000001008302725526600344_" class="st0">
	
		<image style="display:inline;overflow:visible;enable-background:new    ;" width="2494" height="500" xlink:href="1.png"  transform="matrix(1 0 0 1 -14.1111 -34.48)">
	</image>
</g>
<g id="Layer_2_00000160896044460964237240000001048408039565232026_">
	<path id="path3789" class="st1" d="M468.1,88.6c-50.8,0-96.2,26.3-96.2,74.9c0,55.7,80.5,59.5,80.5,87.5
		c0,11.8-13.5,22.3-36.6,22.3c-32.8,0-57.3-14.7-57.3-14.7l-10.5,49c0,0,28.2,12.4,65.7,12.4c55.6,0,99.3-27.6,99.3-77
		c0-58.9-80.9-62.6-80.9-88.6c0-9.2,11.1-19.3,34.1-19.3c26,0,47.2,10.7,47.2,10.7l10.3-47.3C523.7,98.6,500.7,88.6,468.1,88.6
		L468.1,88.6z M3.2,92.2L2,99.4c0,0,21.4,3.9,40.6,11.7c24.8,8.9,26.6,14.1,30.7,30.3l45.5,175.1h61l94-224.2h-60.9l-60.4,152.4
		l-24.6-129.2c-2.3-14.8-13.7-23.2-27.7-23.2C100.2,92.2,3.2,92.2,3.2,92.2z M298.3,92.2l-47.7,224.2h58l47.6-224.2H298.3
		L298.3,92.2z M621.9,92.2c-14,0-21.4,7.5-26.8,20.5l-85,203.6H571l11.8-33.9h74.1l7.2,33.9h53.7l-47-224.1H621.9L621.9,92.2z
		 M629.8,152.8l18,84.1h-48.3L629.8,152.8L629.8,152.8z"/>
	<g id="layer1" transform="matrix(3.3557321,0,0,3.3557321,-1551.7864,-2007.0469)">
		<g id="g13" transform="matrix(2.5579399,0,0,2.5579399,884.90115,-11.427398)">
			<g id="XMLID_328_" transform="translate(-502.86126,-22.613497)">
				<rect id="rect19" x="444.6" y="274.4" class="st2" width="11.5" height="20.6"/>
				<path id="XMLID_330_" class="st3" d="M445.3,284.7c0-4.2,2-7.9,5-10.3c-2.2-1.7-5-2.8-8.1-2.8c-7.2,0-13.1,5.9-13.1,13.1
					s5.9,13.1,13.1,13.1c3.1,0,5.9-1.1,8.1-2.8C447.3,292.6,445.3,288.8,445.3,284.7z"/>
				<path id="path22" class="st4" d="M471.5,284.7c0,7.2-5.9,13.1-13.1,13.1c-3.1,0-5.9-1.1-8.1-2.8c3.1-2.4,5-6.1,5-10.3
					s-2-7.9-5-10.3c2.2-1.7,5-2.8,8.1-2.8C465.6,271.6,471.5,277.5,471.5,284.7z"/>
			</g>
		</g>
	</g>
	<g id="sim">
		<g id="mir-logo" transform="translate(31.000000, 13.000000)">
			<g id="Group-5">
				<path id="Combined-Shape" class="st5" d="M1259.7,80.4c7.3,0,29-2,38.2,29c6.2,20.9,16.1,55.2,29.6,102.8l0,0h5.5
					c14.5-50.2,24.5-84.4,29.9-102.8c9.3-31.4,32.5-29,41.8-29h71.7v223h-73.1V172h-4.9l-40.7,131.4h-55L1262,171.9h-4.9v131.5H1184
					v-223L1259.7,80.4z M1581.5,80.4v131.5h5.8l49.6-108.2c9.6-21.5,30.1-23.4,30.1-23.4l0,0h70.7v223h-74.6V171.9h-5.8L1608.7,280
					c-9.6,21.4-31.1,23.4-31.1,23.4h-70.7v-223C1506.9,80.4,1581.5,80.4,1581.5,80.4z M1995.5,186.3c-10.4,29.5-43.1,50.6-79.3,50.6
					l0,0H1838v66.4h-70.9v-117L1995.5,186.3L1995.5,186.3z"/>
				
					<linearGradient id="path24_00000035513957390496318040000003426335642108276873_" gradientUnits="userSpaceOnUse" x1="1597.8007" y1="5.1587" x2="1595.4781" y2="5.1587" gradientTransform="matrix(102.6707 0 0 39.6694 -162045.4531 -78.1441)">
					<stop  offset="0" style="stop-color:#1F5CD7"/>
					<stop  offset="1" style="stop-color:#02AEFF"/>
				</linearGradient>
				
					<path id="path24" style="fill-rule:evenodd;clip-rule:evenodd;fill:url(#path24_00000035513957390496318040000003426335642108276873_);" d="
					M1919.7,80.4h-156.3c3.7,49.7,46.5,92.2,90.7,92.2h146.3C2008.9,131.3,1979.8,80.4,1919.7,80.4z"/>
			</g>
		</g>
	</g>
	
		<image style="display:none;overflow:visible;enable-background:new    ;" width="489" height="603" xlink:href="../Downloads/sbp.png"  transform="matrix(0.6783 0 0 0.6783 2099.3379 0)">
	</image>
</g>
<g id="Layer_3_00000031919994138749171030000010975575675214022791_">
	<g>
		<path class="st7" d="M2099.6,91.6l49.5,88.4v53.9l-49.4,88.3"/>
		<path class="st8" d="M2430.8,119.3l-141.2,86.5c0,0,0-58,0-58l46.4-28.4L2430.8,119.3"/>
		<path class="st9" d="M2240,2.6l49.3,88.4h0l0.3,117.1l-49.6-30.5V2.6"/>
		<path class="st10" d="M2430.8,119.3l-94.9,0.1L2289.3,91L2240,2.6"/>
		<path class="st11" d="M2240,411.2l49.6-88.5v-56.8L2240,236L2240,411.2"/>
		<path class="st12" d="M2430.6,294.4l-94.8,0.1h0L2149.1,180l-49.5-88.4"/>
		<path class="st13" d="M2240,411.2l49.6-88.5l46.2-28.2l94.8-0.1"/>
		<path class="st14" d="M2099.7,322.2l140.7-86.2l-47.3-29l-44,27L2099.7,322.2"/>
	</g>
	<path class="st15" d="M2240,0l190.8,116.7"/>
	<path class="st16" d="M2099.6,89l331,202.8"/>
	<path class="st17" d="M2430.6,291.8L2240,408.5"/>
</g>
</svg>
